<?xml version="1.0" standalone="no"?>
<!DOCTYPE svg PUBLIC "-//W3C//DTD SVG 20010904//EN"
 "http://www.w3.org/TR/2001/REC-SVG-20010904/DTD/svg10.dtd">
<svg version="1.0" xmlns="http://www.w3.org/2000/svg"
 width="1231.000000pt" height="1231.000000pt" viewBox="0 0 1231.000000 1231.000000"
 preserveAspectRatio="xMidYMid meet">

<g transform="translate(0.000000,1231.000000) scale(0.100000,-0.100000)"
fill="#000000" stroke="none">
<path d="M4160 8335 c-8 -2 -49 -9 -90 -15 -284 -46 -556 -201 -732 -420 -201
-250 -279 -591 -213 -937 39 -204 123 -368 267 -519 l59 -62 -108 -6 c-59 -3
-236 -9 -393 -13 l-285 -7 175 -10 c238 -13 6529 -14 6875 -1 l260 10 -155 6
c-85 4 -233 7 -327 8 -95 0 -173 3 -173 6 0 3 15 36 34 73 78 155 120 324 136
538 19 275 -22 477 -139 679 -58 100 -223 269 -336 344 -263 173 -634 284
-1080 321 -69 6 -526 10 -1072 10 l-953 0 0 -65 0 -65 69 0 c143 0 298 -51
380 -125 51 -46 97 -140 111 -225 6 -40 10 -341 10 -772 l0 -708 -889 0 -888
0 -194 117 c-231 139 -323 201 -444 298 -213 172 -340 348 -375 520 -15 71 -8
202 15 290 44 166 160 307 316 384 135 66 187 76 389 75 191 -1 243 -10 406
-73 257 -99 529 -376 689 -702 42 -85 97 -236 141 -386 2 -9 29 -13 89 -13
l86 0 -6 43 c-3 23 -19 182 -35 352 -17 171 -46 469 -65 664 -19 195 -35 363
-35 373 0 16 -9 18 -74 18 l-75 0 -37 -71 c-63 -119 -138 -162 -244 -139 -30
7 -152 44 -270 82 -299 96 -412 118 -630 123 -96 2 -182 2 -190 0z m3640 -280
c312 -46 542 -148 706 -310 76 -76 97 -105 137 -185 54 -111 81 -208 98 -352
14 -120 7 -311 -16 -440 -18 -106 -73 -262 -117 -334 l-32 -54 -698 0 -698 0
0 733 c0 426 5 760 10 800 17 115 37 137 146 157 68 13 338 4 464 -15z"/>
<path d="M3235 5879 c-132 -3 -307 -8 -390 -9 -126 -2 -140 -4 -90 -11 33 -4
377 -11 765 -15 l705 -7 81 -47 c307 -181 588 -368 684 -457 117 -108 198
-249 254 -438 132 -446 -128 -878 -583 -970 -67 -14 -117 -16 -235 -12 -158 5
-250 20 -378 63 -394 130 -743 507 -943 1019 l-44 110 -81 3 c-79 3 -81 3 -75
-20 2 -13 48 -327 100 -698 53 -371 98 -690 101 -707 l6 -33 73 0 73 0 7 37
c8 45 30 90 59 121 70 78 151 72 516 -33 346 -100 488 -125 710 -125 432 0
788 137 1061 409 312 311 425 730 314 1166 -46 182 -170 388 -324 540 -34 33
-61 63 -61 67 0 5 210 7 468 6 l467 -3 0 -860 c0 -802 -1 -863 -18 -911 -63
-180 -209 -264 -499 -289 l-78 -7 0 -64 0 -64 945 0 945 0 0 64 0 64 -67 6
c-261 24 -406 94 -472 228 -17 35 -35 87 -41 117 -6 33 -10 353 -10 834 l0
780 68 -7 c205 -22 267 -25 477 -26 331 0 540 28 785 105 l105 33 595 6 c327
3 629 9 670 13 140 14 -264 21 -1667 28 l-1353 7 0 -31 c0 -19 -6 -34 -15 -37
-11 -5 -13 -10 -5 -19 7 -9 5 -18 -7 -33 -24 -27 -140 -37 -140 -13 0 9 5 19
11 23 7 5 7 8 -2 8 -7 0 -10 5 -7 10 5 8 11 7 21 -1 11 -9 21 -9 44 1 25 10
30 18 30 46 0 35 -16 44 -38 22 -18 -18 -50 -17 -69 4 -21 24 -39 23 -46 -2
-7 -29 -63 -28 -70 1 -7 27 -54 24 -49 -3 5 -28 -64 -25 -71 2 -7 25 -37 26
-37 1 0 -25 -62 -25 -72 1 -10 24 -38 23 -38 -1 0 -22 -27 -22 -41 0 -7 11 -9
10 -9 -6 -1 -18 -1 -19 -11 -2 -5 9 -15 17 -21 17 -6 0 -17 -8 -24 -17 -12
-17 -15 -17 -54 5 -41 23 -63 22 -54 -2 4 -10 -4 -13 -28 -13 -22 1 -35 7 -40
19 -10 24 -38 23 -38 -1 0 -22 -27 -22 -41 0 -7 11 -9 10 -9 -6 -1 -18 -1 -19
-11 -2 -5 9 -15 17 -21 17 -6 0 -17 -8 -24 -17 -12 -17 -15 -17 -53 5 l-40 22
-1153 -2 c-634 -1 -1261 -5 -1393 -9z"/>
<path d="M6800 5834 c0 -8 5 -12 10 -9 6 3 10 10 10 16 0 5 -4 9 -10 9 -5 0
-10 -7 -10 -16z"/>
<path d="M6795 5779 c-4 -6 -22 -8 -45 -4 -23 4 -41 2 -45 -4 -4 -7 12 -11 49
-11 43 0 56 3 56 15 0 18 -6 19 -15 4z"/>
</g>
</svg>
